<svg width="67.998047" height="68.000000" viewBox="0 0 67.998 68" fill="none" xmlns="http://www.w3.org/2000/svg" xmlns:xlink="http://www.w3.org/1999/xlink">
	<desc>
			Created with Pixso.
	</desc>
	<defs/>
	<ellipse id="Ellipse" cx="34.000000" cy="34.000000" rx="33.999290" ry="34.000000" fill="#15A9CB" fill-opacity="1.000000"/>
	<path id="Logo" d="M27.89 36.28Q27.77 36.23 27.63 36.23Q27.55 36.23 27.47 36.24Q27.19 36.3 26.95 36.58Q26.02 37.66 24.97 38.15Q23.93 38.64 22.47 38.64Q21.89 38.64 21.13 38.49Q20.39 38.34 18.97 37.98Q16.56 37.38 14.95 37.11Q15.15 36.23 15.27 35.02L15.85 29.3Q16.18 26.21 17.39 24.76Q17.73 24.35 18.16 24.05Q19.23 23.32 20.81 23.32Q22.07 23.32 22.68 23.94Q22.8 24.06 22.9 24.19Q23.3 24.76 23.3 25.61Q23.3 26.16 23.15 26.87Q23.05 27.47 23.05 27.69Q23.05 28.16 23.27 28.47Q23.35 28.58 23.45 28.67Q23.86 29 24.56 29Q24.94 29 25.26 28.86Q25.75 28.64 26.09 28.06Q26.65 27.12 26.65 25.58Q26.65 24.05 25.98 22.9Q25.66 22.36 25.19 21.91Q25.13 21.85 25.07 21.79Q23.61 20.5 21.01 20.5Q19.41 20.5 17.97 20.98Q17.92 21 17.87 21.02Q16.82 21.38 15.94 21.98Q15.57 22.24 15.23 22.53Q14.7 22.99 14.26 23.53Q13.59 24.34 13.14 25.33Q12.38 26.96 12.23 29.48L11.78 36.8L11.45 36.8Q9.49 36.8 8.3 37.62Q7.51 38.17 7.25 38.9Q7.12 39.27 7.12 39.67Q7.12 40.12 7.29 40.49Q7.49 40.96 7.96 41.32Q8.81 41.96 10.22 41.96Q11.41 41.96 12.33 41.45Q13.38 40.87 14.07 39.62Q15.4 40.02 16.83 40.65Q18.42 41.31 19.53 41.63Q20.64 41.96 21.95 41.96Q23.81 41.96 25.13 41.28Q26.45 40.6 27.85 38.92Q28.04 38.69 28.16 38.4Q28.22 38.64 28.31 38.87Q28.39 39.09 28.48 39.3Q28.8 40 29.3 40.54Q29.66 40.93 30.1 41.23Q30.2 41.3 30.3 41.36Q31.31 41.96 32.68 41.96Q33.38 41.96 34.02 41.77Q35.02 41.46 35.88 40.69Q36.1 40.49 36.3 40.27Q37.37 39.09 37.77 37.31Q38.6 37.27 39.36 37.14Q39.33 37.5 39.33 37.86Q39.33 39.61 40.17 40.72Q40.21 40.78 40.25 40.83Q40.64 41.3 41.14 41.57Q41.83 41.96 42.75 41.96Q43.43 41.96 44.12 41.6Q44.39 41.45 44.62 41.26Q44.98 40.96 45.24 40.55L45.09 41.53Q41.22 44.53 39.81 46.58Q38.4 48.63 38.4 50.42Q38.4 51.33 38.8 51.99Q38.97 52.26 39.2 52.49Q39.43 52.72 39.7 52.88Q40.37 53.28 41.29 53.28Q41.79 53.28 42.25 53.15Q44 52.66 45.23 50.3Q46.78 47.32 47.73 42.11L49.34 41.03Q50.19 40.43 51.87 39.3Q52.18 39.99 52.66 40.53Q53 40.92 53.43 41.22Q53.54 41.3 53.67 41.37Q54.64 41.96 55.96 41.96Q56.75 41.96 57.47 41.73Q58.12 41.52 58.71 41.12Q58.88 41 59.05 40.87Q60.06 40.07 60.69 38.78Q61.42 37.28 61.42 35.37Q61.42 34.27 61.09 33.29Q61 33.03 60.89 32.78Q60.59 32.08 60.11 31.54Q59.76 31.14 59.31 30.83Q59.17 30.73 59.02 30.64Q58.05 30.08 56.76 30.08Q55.89 30.08 55.11 30.36Q54.52 30.57 53.99 30.93Q53.86 31.02 53.74 31.12Q52.69 31.93 52.05 33.27Q51.33 34.76 51.33 36.68Q51.33 36.78 51.33 36.89Q49.83 37.9 48.23 39.14Q48.36 38.34 48.47 37.62Q48.59 36.9 48.69 36.3Q49.22 33.13 49.31 32.35Q49.34 32.17 49.34 31.87Q49.34 31.32 49.08 31.13L49.08 31.13Q48.82 30.94 48.18 30.94Q47.56 30.94 47.08 31.04Q46.95 30.49 46.76 30.27Q46.57 30.06 46.02 30.06Q45.55 30.06 45.1 30.14Q43.87 30.35 42.74 31.15Q42.42 31.38 42.13 31.63Q41 32.61 40.25 34.05Q40.18 34.19 40.12 34.33Q38.9 34.6 37.97 34.67Q37.82 33.2 37.11 32.09Q36.88 31.73 36.6 31.4Q36.16 30.91 35.61 30.6Q34.71 30.08 33.51 30.08Q32.69 30.08 31.94 30.32Q31.28 30.53 30.68 30.93Q30.4 31.11 30.16 31.32Q29.24 32.09 28.66 33.27Q28 34.62 27.94 36.31Q27.91 36.3 27.89 36.28ZM43.72 39.42Q43.69 39.42 43.66 39.42Q43.29 39.42 43.03 39.26Q42.89 39.17 42.78 39.05Q42.47 38.67 42.47 37.89Q42.47 36.92 42.72 36.02Q42.84 35.61 43 35.22Q43.53 33.96 44.41 33.19Q45.08 32.6 45.85 32.45Q46.08 32.41 46.32 32.4L45.52 36.7Q45.29 38.01 44.76 38.71Q44.26 39.38 43.72 39.42ZM33.45 39.2Q33.18 39.29 32.89 39.29Q32.71 39.29 32.54 39.25Q32.02 39.11 31.62 38.57Q31.07 37.84 31.07 36.45Q31.07 34.69 31.74 33.72Q32.19 33.06 32.8 32.85Q33.09 32.75 33.42 32.75L33.54 32.75Q33.46 33.16 33.46 33.55Q33.46 34.06 33.58 34.54Q33.68 34.97 33.88 35.37Q34.1 35.83 34.42 36.19Q34.71 36.51 35.07 36.75Q34.88 37.98 34.28 38.64Q33.91 39.05 33.45 39.2ZM56.64 39.19Q56.44 39.24 56.24 39.24Q55.96 39.24 55.72 39.15Q55.3 39 54.98 38.57Q54.47 37.89 54.47 36.45Q54.47 34.64 55.06 33.73Q55.48 33.08 56.06 32.88Q56.3 32.81 56.56 32.81Q56.75 32.81 56.92 32.85Q57.4 32.99 57.77 33.51Q58.28 34.21 58.28 35.59Q58.28 37.38 57.68 38.32Q57.23 39.02 56.64 39.19ZM42.99 49.33Q42.19 50.84 41.57 50.84Q41.31 50.84 41.16 50.72Q41.08 50.66 41.02 50.56Q40.86 50.29 40.86 49.86Q40.86 48.86 41.72 47.52Q42.58 46.19 44.51 44.53Q43.78 47.82 42.99 49.33Z" fill="#FFFFFF" fill-opacity="1.000000" fill-rule="evenodd"/>
</svg>
