<svg width="30.000000" height="30.000000" viewBox="0 0 30 30" fill="none" xmlns="http://www.w3.org/2000/svg" xmlns:xlink="http://www.w3.org/1999/xlink">
	<desc>
			Created with Pixso.
	</desc>
	<defs/>
	<circle id="Ellipse" cx="15.000000" cy="15.000000" r="15.000000" fill="#15A9CB" fill-opacity="1.000000"/>
	<path id="Logo" d="M12.62 15.57Q12.57 15.54 12.51 15.54Q12.47 15.54 12.44 15.55Q12.32 15.58 12.21 15.7Q11.8 16.17 11.35 16.38Q10.89 16.6 10.26 16.6Q10 16.6 9.67 16.53Q9.34 16.47 8.72 16.31Q7.67 16.05 6.97 15.93Q7.05 15.54 7.11 15.01L7.36 12.52Q7.51 11.16 8.03 10.53Q8.18 10.35 8.37 10.22Q8.84 9.9 9.53 9.9Q10.08 9.9 10.35 10.17Q10.4 10.22 10.44 10.28Q10.62 10.53 10.62 10.9Q10.62 11.14 10.55 11.45Q10.51 11.71 10.51 11.81Q10.51 12.02 10.6 12.15Q10.64 12.2 10.68 12.24Q10.86 12.38 11.17 12.38Q11.33 12.38 11.47 12.32Q11.69 12.22 11.84 11.97Q12.08 11.56 12.08 10.89Q12.08 10.22 11.79 9.72Q11.65 9.48 11.44 9.28Q11.42 9.26 11.39 9.23Q10.75 8.67 9.62 8.67Q8.92 8.67 8.29 8.88Q8.26 8.89 8.24 8.89Q7.78 9.05 7.4 9.32Q7.24 9.43 7.09 9.56Q6.86 9.76 6.66 9.99Q6.37 10.35 6.17 10.78Q5.84 11.49 5.78 12.59L5.58 15.8L5.44 15.8Q4.58 15.8 4.06 16.15Q3.71 16.39 3.6 16.71Q3.54 16.87 3.54 17.05Q3.54 17.24 3.62 17.41Q3.71 17.61 3.91 17.77Q4.28 18.05 4.9 18.05Q5.42 18.05 5.82 17.83Q6.28 17.57 6.58 17.03Q7.16 17.2 7.79 17.48Q8.48 17.76 8.97 17.91Q9.45 18.05 10.02 18.05Q10.84 18.05 11.42 17.75Q11.99 17.46 12.61 16.72Q12.69 16.62 12.74 16.49Q12.77 16.6 12.81 16.7Q12.84 16.79 12.88 16.89Q13.02 17.19 13.24 17.43Q13.4 17.6 13.59 17.73Q13.63 17.76 13.68 17.79Q14.12 18.05 14.72 18.05Q15.02 18.05 15.3 17.96Q15.74 17.83 16.12 17.5Q16.21 17.41 16.3 17.31Q16.77 16.79 16.94 16.02Q17.3 16 17.64 15.94Q17.62 16.1 17.62 16.26Q17.62 17.02 17.99 17.51Q18.01 17.53 18.03 17.55Q18.2 17.76 18.41 17.88Q18.72 18.05 19.12 18.05Q19.42 18.05 19.72 17.89Q19.84 17.83 19.94 17.74Q20.1 17.61 20.21 17.43L20.14 17.86Q18.45 19.17 17.83 20.07Q17.22 20.97 17.22 21.75Q17.22 22.15 17.39 22.44Q17.47 22.55 17.57 22.65Q17.67 22.75 17.78 22.82Q18.08 23 18.48 23Q18.7 23 18.9 22.94Q19.67 22.73 20.2 21.7Q20.88 20.39 21.3 18.12L22 17.64Q22.37 17.38 23.11 16.89Q23.24 17.19 23.45 17.43Q23.6 17.59 23.79 17.73Q23.84 17.76 23.89 17.79Q24.32 18.05 24.9 18.05Q25.24 18.05 25.55 17.95Q25.84 17.86 26.1 17.68Q26.17 17.63 26.25 17.57Q26.69 17.22 26.96 16.66Q27.28 16.01 27.28 15.17Q27.28 14.69 27.14 14.26Q27.1 14.15 27.05 14.04Q26.92 13.73 26.71 13.5Q26.56 13.32 26.36 13.18Q26.3 13.14 26.23 13.1Q25.81 12.86 25.25 12.86Q24.86 12.86 24.52 12.98Q24.27 13.07 24.04 13.23Q23.98 13.27 23.92 13.31Q23.47 13.67 23.18 14.25Q22.87 14.9 22.87 15.74Q22.87 15.79 22.87 15.83Q22.22 16.27 21.52 16.82Q21.57 16.47 21.62 16.15Q21.67 15.84 21.72 15.58Q21.95 14.19 21.99 13.85Q22 13.77 22 13.64Q22 13.4 21.89 13.31L21.89 13.31Q21.77 13.23 21.5 13.23Q21.22 13.23 21.01 13.28Q20.96 13.03 20.87 12.94Q20.79 12.85 20.55 12.85Q20.35 12.85 20.15 12.88Q19.61 12.98 19.11 13.32Q18.98 13.42 18.85 13.53Q18.35 13.96 18.03 14.59Q18 14.65 17.97 14.71Q17.44 14.83 17.03 14.86Q16.96 14.22 16.65 13.73Q16.56 13.58 16.43 13.43Q16.24 13.22 16 13.08Q15.6 12.86 15.08 12.86Q14.72 12.86 14.39 12.96Q14.1 13.05 13.84 13.23Q13.72 13.31 13.61 13.4Q13.21 13.74 12.96 14.25Q12.67 14.84 12.64 15.58Q12.63 15.57 12.62 15.57ZM19.54 16.94Q19.53 16.94 19.52 16.94Q19.36 16.94 19.24 16.87Q19.18 16.83 19.14 16.78Q19 16.61 19 16.27Q19 15.84 19.11 15.45Q19.16 15.27 19.23 15.1Q19.46 14.55 19.84 14.22Q20.14 13.96 20.48 13.89Q20.58 13.87 20.68 13.87L20.33 15.75Q20.23 16.32 20 16.63Q19.78 16.92 19.54 16.94ZM15.05 16.84Q14.94 16.88 14.81 16.88Q14.73 16.88 14.65 16.86Q14.43 16.8 14.25 16.57Q14.02 16.25 14.02 15.64Q14.02 14.87 14.31 14.45Q14.5 14.16 14.77 14.07Q14.9 14.02 15.04 14.02L15.1 14.02Q15.06 14.2 15.06 14.37Q15.06 14.6 15.11 14.8Q15.15 14.99 15.24 15.17Q15.34 15.37 15.48 15.53Q15.6 15.67 15.76 15.77Q15.68 16.31 15.42 16.6Q15.25 16.78 15.05 16.84ZM25.19 16.84Q25.11 16.86 25.02 16.86Q24.9 16.86 24.79 16.82Q24.61 16.75 24.47 16.57Q24.25 16.27 24.25 15.64Q24.25 14.85 24.5 14.45Q24.69 14.17 24.94 14.08Q25.04 14.05 25.16 14.05Q25.24 14.05 25.32 14.07Q25.53 14.13 25.69 14.36Q25.91 14.66 25.91 15.27Q25.91 16.05 25.65 16.46Q25.45 16.76 25.19 16.84ZM19.22 21.27Q18.88 21.93 18.6 21.93Q18.49 21.93 18.42 21.88Q18.39 21.85 18.36 21.81Q18.29 21.69 18.29 21.51Q18.29 21.06 18.67 20.48Q19.04 19.9 19.89 19.17Q19.57 20.61 19.22 21.27Z" fill="#FFFFFF" fill-opacity="1.000000" fill-rule="evenodd"/>
</svg>
