<svg width="60.000000" height="60.000000" viewBox="0 0 60 60" fill="none" xmlns="http://www.w3.org/2000/svg" xmlns:xlink="http://www.w3.org/1999/xlink">
	<desc>
			Created with Pixso.
	</desc>
	<defs/>
	<circle id="Ellipse" cx="30.000000" cy="30.000000" r="30.000000" fill="#15A9CB" fill-opacity="1.000000"/>
	<path id="Logo" d="M25.25 32.14Q25.15 32.09 25.02 32.09Q24.95 32.09 24.88 32.11Q24.64 32.16 24.43 32.4Q23.61 33.34 22.7 33.77Q21.79 34.2 20.52 34.2Q20 34.2 19.34 34.07Q18.69 33.94 17.45 33.63Q15.34 33.1 13.94 32.86Q14.11 32.09 14.22 31.03L14.73 26.04Q15.02 23.33 16.07 22.07Q16.37 21.71 16.75 21.45Q17.68 20.8 19.06 20.8Q20.16 20.8 20.7 21.34Q20.8 21.45 20.89 21.57Q21.24 22.06 21.24 22.8Q21.24 23.29 21.11 23.91Q21.02 24.43 21.02 24.63Q21.02 25.04 21.21 25.31Q21.28 25.4 21.37 25.48Q21.72 25.77 22.34 25.77Q22.67 25.77 22.95 25.65Q23.38 25.45 23.68 24.95Q24.17 24.13 24.17 22.78Q24.17 21.44 23.58 20.44Q23.3 19.97 22.89 19.57Q22.84 19.52 22.78 19.47Q21.51 18.34 19.24 18.34Q17.84 18.34 16.58 18.76Q16.53 18.78 16.49 18.79Q15.57 19.11 14.8 19.64Q14.48 19.86 14.18 20.12Q13.72 20.52 13.33 20.99Q12.75 21.7 12.35 22.56Q11.69 23.99 11.56 26.19L11.16 32.6L10.88 32.6Q9.16 32.6 8.12 33.31Q7.43 33.79 7.2 34.43Q7.09 34.75 7.09 35.1Q7.09 35.49 7.24 35.82Q7.42 36.23 7.83 36.54Q8.56 37.1 9.8 37.1Q10.84 37.1 11.64 36.66Q12.57 36.15 13.17 35.06Q14.33 35.41 15.58 35.96Q16.97 36.53 17.94 36.82Q18.91 37.1 20.05 37.1Q21.68 37.1 22.84 36.51Q23.99 35.92 25.22 34.44Q25.38 34.25 25.48 33.99Q25.54 34.2 25.62 34.4Q25.69 34.59 25.77 34.78Q26.05 35.39 26.48 35.86Q26.8 36.2 27.19 36.47Q27.27 36.53 27.36 36.58Q28.24 37.1 29.44 37.1Q30.05 37.1 30.61 36.93Q31.49 36.67 32.24 36Q32.43 35.82 32.61 35.63Q33.54 34.59 33.89 33.04Q34.61 33 35.28 32.89Q35.25 33.2 35.25 33.52Q35.25 35.05 35.99 36.02Q36.03 36.07 36.06 36.11Q36.4 36.52 36.83 36.76Q37.44 37.1 38.24 37.1Q38.84 37.1 39.44 36.79Q39.68 36.66 39.88 36.49Q40.2 36.23 40.42 35.87L40.29 36.73Q36.91 39.35 35.67 41.14Q34.44 42.94 34.44 44.5Q34.44 45.3 34.79 45.88Q34.94 46.11 35.14 46.31Q35.34 46.51 35.57 46.65Q36.16 47.01 36.97 47.01Q37.41 47.01 37.81 46.89Q39.34 46.46 40.41 44.4Q41.77 41.79 42.6 37.24L44.01 36.29Q44.75 35.77 46.22 34.78Q46.49 35.39 46.91 35.86Q47.21 36.19 47.58 36.46Q47.68 36.53 47.79 36.59Q48.64 37.1 49.8 37.1Q50.49 37.1 51.11 36.9Q51.68 36.72 52.2 36.37Q52.35 36.26 52.5 36.15Q53.38 35.45 53.93 34.33Q54.57 33.02 54.57 31.34Q54.57 30.38 54.28 29.52Q54.2 29.3 54.11 29.08Q53.84 28.47 53.42 28Q53.12 27.65 52.72 27.37Q52.6 27.28 52.47 27.21Q51.63 26.72 50.5 26.72Q49.73 26.72 49.05 26.96Q48.54 27.14 48.08 27.46Q47.96 27.54 47.85 27.62Q46.94 28.34 46.37 29.51Q45.75 30.81 45.75 32.48Q45.75 32.58 45.75 32.67Q44.44 33.55 43.04 34.64Q43.15 33.94 43.25 33.31Q43.35 32.68 43.44 32.16Q43.9 29.38 43.98 28.7Q44.01 28.55 44.01 28.28Q44.01 27.8 43.78 27.63L43.78 27.63Q43.55 27.47 43 27.47Q42.45 27.47 42.03 27.56Q41.92 27.07 41.75 26.89Q41.59 26.7 41.11 26.7Q40.7 26.7 40.3 26.77Q39.22 26.96 38.23 27.65Q37.96 27.85 37.7 28.07Q36.71 28.93 36.06 30.18Q36 30.31 35.94 30.43Q34.88 30.67 34.06 30.73Q33.93 29.44 33.31 28.47Q33.11 28.16 32.86 27.87Q32.48 27.44 32 27.17Q31.21 26.72 30.17 26.72Q29.45 26.72 28.79 26.93Q28.21 27.11 27.69 27.46Q27.45 27.62 27.23 27.8Q26.43 28.48 25.93 29.51Q25.35 30.69 25.29 32.16Q25.27 32.15 25.25 32.14ZM39.09 34.88Q39.07 34.88 39.04 34.88Q38.72 34.88 38.49 34.74Q38.37 34.67 38.28 34.56Q38 34.22 38 33.54Q38 32.69 38.22 31.91Q38.32 31.55 38.46 31.21Q38.92 30.11 39.69 29.44Q40.29 28.92 40.96 28.79Q41.16 28.75 41.37 28.75L40.67 32.5Q40.47 33.65 40 34.27Q39.57 34.85 39.09 34.88ZM30.11 34.69Q29.88 34.77 29.62 34.77Q29.46 34.77 29.31 34.73Q28.86 34.61 28.51 34.14Q28.04 33.5 28.04 32.28Q28.04 30.75 28.62 29.9Q29.01 29.32 29.55 29.14Q29.8 29.05 30.08 29.05L30.2 29.05Q30.13 29.41 30.13 29.75Q30.13 30.2 30.23 30.61Q30.31 30.99 30.49 31.34Q30.68 31.74 30.97 32.06Q31.21 32.34 31.53 32.55Q31.36 33.63 30.84 34.2Q30.51 34.56 30.11 34.69ZM50.39 34.68Q50.22 34.73 50.04 34.73Q49.8 34.73 49.58 34.65Q49.22 34.51 48.94 34.14Q48.5 33.54 48.5 32.28Q48.5 30.71 49.01 29.91Q49.38 29.34 49.88 29.17Q50.09 29.1 50.32 29.1Q50.49 29.1 50.64 29.14Q51.06 29.26 51.38 29.72Q51.82 30.33 51.82 31.54Q51.82 33.1 51.3 33.92Q50.91 34.53 50.39 34.68ZM38.45 43.55Q37.76 44.87 37.21 44.87Q36.99 44.87 36.85 44.76Q36.78 44.71 36.73 44.63Q36.59 44.39 36.59 44.02Q36.59 43.13 37.34 41.97Q38.09 40.8 39.78 39.35Q39.15 42.23 38.45 43.55Z" fill="#FFFFFF" fill-opacity="1.000000" fill-rule="evenodd"/>
</svg>
