<svg width="24.000000" height="24.000000" viewBox="0 0 24 24" fill="none" xmlns="http://www.w3.org/2000/svg" xmlns:xlink="http://www.w3.org/1999/xlink">
	<desc>
			Created with Pixso.
	</desc>
	<defs/>
	<circle id="Ellipse" cx="12.000000" cy="12.000000" r="12.000000" fill="#555A7B" fill-opacity="1.000000"/>
	<path id="Vector" d="M18.25 16.02C18.21 15.73 18.04 15.48 17.79 15.33L14.78 13.6C14.41 13.39 13.94 13.45 13.64 13.75L13.05 14.34C12.89 14.5 12.64 14.51 12.47 14.37C12 14 11.54 13.59 11.1 13.15C10.66 12.71 10.25 12.25 9.87 11.78C9.73 11.61 9.74 11.36 9.9 11.2L10.5 10.61C10.8 10.31 10.86 9.84 10.65 9.47L8.91 6.47C8.76 6.21 8.51 6.04 8.22 6C7.92 5.96 7.64 6.06 7.43 6.27L6.53 7.16C5.91 7.79 5.9 8.92 6.51 10.37C7.09 11.76 8.17 13.29 9.57 14.68C10.95 16.07 12.49 17.15 13.88 17.73C14.59 18.03 15.23 18.18 15.77 18.18C16.32 18.18 16.77 18.02 17.09 17.7L17.98 16.81C18.19 16.6 18.29 16.32 18.25 16.02ZM14.58 13.94L17.59 15.67C17.74 15.76 17.84 15.9 17.86 16.07C17.88 16.22 17.84 16.36 17.76 16.47L13.76 14.19L13.92 14.03C14.09 13.85 14.37 13.82 14.58 13.94ZM8.17 6.39C8.34 6.42 8.48 6.52 8.57 6.66L10.3 9.67C10.42 9.88 10.39 10.15 10.21 10.33L10.07 10.48L7.77 6.5C7.86 6.43 7.98 6.39 8.09 6.39C8.12 6.39 8.14 6.39 8.17 6.39ZM16.81 17.43C16.32 17.92 15.3 17.9 14.03 17.37C12.69 16.81 11.2 15.75 9.84 14.4C8.49 13.05 7.43 11.56 6.87 10.22C6.34 8.95 6.32 7.94 6.81 7.44L7.48 6.78L9.78 10.77L9.62 10.92C9.32 11.22 9.29 11.7 9.56 12.03C9.95 12.51 10.37 12.98 10.82 13.42C11.27 13.87 11.74 14.3 12.22 14.68C12.55 14.95 13.03 14.92 13.33 14.62L13.47 14.48L17.47 16.76L16.81 17.43Z" fill="#FFFFFF" fill-opacity="1.000000" fill-rule="nonzero"/>
</svg>
